<svg xmlns="http://www.w3.org/2000/svg" viewBox="0 0 48 48">
  <defs>
    <linearGradient id="b" x1="0" y1="0" x2="1" y2="1">
      <stop offset="0" stop-color="#16a356"/><stop offset="1" stop-color="#063b22"/>
    </linearGradient>
    <linearGradient id="l" x1="0" y1="0" x2="1" y2="1">
      <stop offset="0" stop-color="#b6e58a"/><stop offset="1" stop-color="#7cc14a"/>
    </linearGradient>
  </defs>
  <rect width="48" height="48" rx="13" fill="url(#b)"/>
  <path d="M11 30a13 13 0 0 1 22-9.4" fill="none" stroke="#d9efc6" stroke-width="2.4" stroke-linecap="round" opacity=".85"/>
  <path d="M33 17.5l1.2 5.2-5.2-1" fill="none" stroke="#d9efc6" stroke-width="2.4" stroke-linecap="round" stroke-linejoin="round" opacity=".85"/>
  <path d="M30 13c-9 0-16 4.4-16 13.5 0 2.6.8 4.9 2.2 6.7 4.6-6.4 9.6-9 14.3-10.6-3.8 2.6-7 6-9 10.8 1.2.5 2.6.8 4 .8 8.2 0 12.5-7.4 12.5-15.5 0-3.2-1.6-11.7-8-11.7z" fill="url(#l)"/>
</svg>
